<svg width="811" height="149" viewBox="0 0 811 149" fill="none" xmlns="http://www.w3.org/2000/svg">
<path d="M0 20V3H17.6V20H0ZM1 146V42.6H16.4V146H1Z" fill="white"/>
<path d="M54.79 146V6H107.19C123.19 6 135.923 10 145.39 18C154.857 26 159.59 36.9334 159.59 50.8C159.59 65.3334 154.357 76.6 143.89 84.6C133.423 92.6 120.323 96.6 104.59 96.6H70.59V146H54.79ZM70.59 82.2H105.19C116.79 82.2 126.09 79.3666 133.09 73.7C140.09 68.0333 143.59 60.4667 143.59 51C143.59 41.2733 140.223 33.7733 133.49 28.5C126.757 23.2267 117.59 20.5933 105.99 20.6H70.59V82.2Z" fill="white"/>
<path d="M185.79 146V42.5999H201.19V69.5999C204.858 61.0849 210.725 53.699 218.19 48.1999C225.477 42.8834 234.386 40.2672 243.39 40.7999V57.3999H242.19C230.33 57.3999 220.53 61.5333 212.79 69.7999C205.05 78.0666 201.183 89.7333 201.19 104.8V146H185.79Z" fill="white"/>
<path fill-rule="evenodd" clip-rule="evenodd" d="M332.86 41.75C337.151 36.915 339.586 30.7131 339.73 24.25C339.731 23.9455 339.665 23.6445 339.539 23.3676C339.412 23.0907 339.227 22.8445 338.996 22.6459C338.765 22.4474 338.494 22.3011 338.201 22.2172C337.908 22.1334 337.601 22.1138 337.3 22.16C330.851 23.322 324.953 26.5429 320.49 31.34C316.69 35.55 313.33 42.04 313.49 48.51C313.495 48.7902 313.556 49.0665 313.67 49.3226C313.783 49.5788 313.947 49.8096 314.151 50.0016C314.355 50.1936 314.595 50.3428 314.858 50.4404C315.121 50.538 315.4 50.5821 315.68 50.57C322.28 50.31 328.76 46.52 332.87 41.75M349.18 87.8801C349.33 103.12 360.56 110.11 364.89 112.25C365.347 112.485 365.702 112.88 365.886 113.359C366.071 113.839 366.072 114.37 365.89 114.85C363.815 120.458 361.015 125.77 357.56 130.65C352.16 138.21 346.56 145.74 337.72 145.9C329.05 146.05 326.26 140.97 316.33 140.97C306.4 140.97 303.33 145.74 295.11 146.05C286.59 146.36 280.11 137.87 274.65 130.34C263.52 114.93 255.01 86.79 266.44 67.8C269.219 63.1436 273.139 59.2723 277.83 56.5515C282.521 53.8307 287.828 52.3503 293.25 52.25C301.62 52.09 309.52 57.64 314.63 57.64C319.74 57.64 329.35 50.97 339.44 51.95C343.44 52.11 354.08 53.4101 361.67 62.3801C361.859 62.6031 361.999 62.8631 362.082 63.1435C362.165 63.4239 362.188 63.7185 362.151 64.0084C362.113 64.2983 362.015 64.5772 361.864 64.8272C361.712 65.0772 361.51 65.2927 361.27 65.46C357.42 68.18 349.02 75.4601 349.14 87.8801" fill="white"/>
<path d="M430.19 148.2C416.99 148.2 405.457 143.3 395.59 133.5C385.723 123.7 380.79 110.6 380.79 94.2C380.79 78.0667 385.723 65.0667 395.59 55.2C405.457 45.3333 416.99 40.4 430.19 40.4C446.45 40.4 459.65 47.7333 469.79 62.4V0H485.19V146H469.79V125.2C459.39 140.527 446.19 148.193 430.19 148.2ZM432.99 134.4C442.99 134.4 451.723 130.6 459.19 123C466.657 115.4 470.39 105.733 470.39 94C470.39 82.5267 466.657 73.0267 459.19 65.5C451.723 57.9734 442.99 54.2066 432.99 54.2C422.59 54.2 413.923 57.8333 406.99 65.1C400.057 72.3667 396.59 82.1333 396.59 94.4C396.59 106.273 400.123 115.907 407.19 123.3C410.464 126.866 414.456 129.698 418.902 131.611C423.349 133.524 428.15 134.475 432.99 134.4Z" fill="white"/>
<path d="M557.59 148.2C545.323 148.2 535.657 144.433 528.59 136.9C521.523 129.367 517.99 119.333 517.99 106.8V42.6H533.39V103C533.39 112.733 535.89 120.367 540.89 125.9C545.89 131.433 552.923 134.2 561.99 134.2C570.917 134.2 578.317 131.2 584.19 125.2C590.063 119.2 592.997 111.4 592.99 101.8V42.6H608.19V146H592.99V128C584.59 141.473 572.79 148.207 557.59 148.2Z" fill="white"/>
<path d="M689.38 148.4C674.453 148.4 661.887 143.1 651.68 132.5C641.861 122.246 636.381 108.597 636.381 94.4C636.381 80.2031 641.861 66.5543 651.68 56.3C661.88 45.7 674.447 40.4 689.38 40.4C705.38 40.4 719.183 46.5334 730.79 58.8L720.99 69.2C711.383 59.0667 700.78 54.0001 689.18 54.0001C684.21 53.927 679.284 54.9355 674.742 56.9558C670.201 58.9761 666.153 61.9597 662.88 65.7C655.747 73.5 652.18 83.0667 652.18 94.4C652.18 105.6 655.817 115.1 663.09 122.9C666.502 126.679 670.688 129.679 675.362 131.698C680.036 133.717 685.09 134.707 690.18 134.6C701.247 134.6 711.647 129.4 721.38 119L731.59 128.4C719.59 141.733 705.52 148.4 689.38 148.4Z" fill="white"/>
<path d="M791.59 147.8C782.65 147.8 775.55 145.433 770.29 140.7C765.03 135.967 762.393 128.6 762.38 118.6V56.2H747.99V42.6H762.38V11.4H777.79V42.6H810.59V56.2H777.79V116.6C777.79 128.073 783.59 133.807 795.19 133.8C800.4 133.765 805.532 132.533 810.19 130.2V143.4C804.443 146.366 798.056 147.877 791.59 147.8Z" fill="white"/>
</svg>
